<svg xmlns="http://www.w3.org/2000/svg" viewBox="0 0 337 126.93"><title>Cadillac logo</title><path d="M417.13,506.13H388.2L386,492.87H510.17v13.26h-3.35V496H416.08Zm-31.67-16.28H510.14v-9.72H383.85Zm78,32.6h46.71v-7H463.46ZM382.63,477h29.55l-5.59-9.72H506.83V477h3.35V464H373.48ZM561,464H513.85v19.53H561Zm-166,75.3c.77,1.16,2.19,2.52,6.9,3.8,2.28.56,4.82,1.12,8.33,1.9h50v-6.89h-65.9a7.27,7.27,0,0,0,.64,1.2Zm-2.86-10.53h68.11V509.25H388.72ZM463.45,556c17.44,3.43,34.5,6.6,46.74,8.52V531.89H463.45Zm100.76-49.92h71.61l3.27-19.53H564.21Zm0-36v6.93l77,0,4.83-6.9ZM680.5,448.53l-22.69,32c-2.49,13.6-9,48.64-9.73,52.05-2.14,9.81-3.16,15.77-22.41,20.35C600,559,541.43,570.85,512,575.47,482.54,570.86,424,559,398.32,553c-19.25-4.58-20.27-10.54-22.41-20.35-.74-3.39-7.24-38.45-9.73-52.05l-22.69-32Zm-17.89,6H361.41L379.3,480.1c4.47,26.57,7.24,43.65,8.39,49.6,2,10.36,2.34,14.83,13,17.71,21.28,5,82.95,17.71,111.29,22,28.34-4.28,90-16.94,111.3-22,10.7-2.88,11.05-7.35,13-17.71,1.12-6,3.91-23,8.39-49.6Zm-148.76,67.9h3.35v-9.83h89.11c-.12,1-1,7.55-1.38,9.86h28.14l2.24-13.22H513.85Zm0,12.74H630.7l1.89-9.68H513.85ZM561,492.88H513.85v7H561Zm-47.15,45.19H629.76a6,6,0,0,1-.63,1.2c-.77,1.16-2.17,2.59-6.91,3.77-21,5.22-78.67,16.66-108.37,21.52Zm3.35,22.58c5.34-1,18.41-3.24,23.06-4.13,47.42-9.06,55.56-10.44,59.51-15.1H517.21Z" transform="translate(-343.5 -448.53)"/></svg>