<?xml version="1.0" encoding="utf-8"?>
<!-- Generator: Adobe Illustrator 25.4.1, SVG Export Plug-In . SVG Version: 6.00 Build 0)  -->
<svg version="1.1" id="Layer_1" xmlns="http://www.w3.org/2000/svg" xmlns:xlink="http://www.w3.org/1999/xlink" x="0px" y="0px"
	 viewBox="0 0 337 126.9" style="enable-background:new 0 0 337 126.9;" xml:space="preserve">
<style type="text/css">
	.st0{fill:#F4F4F4;}
</style>
<path class="st0" d="M73.6,57.6H44.7l-2.2-13.3h124.2v13.3h-3.4V47.5H72.6L73.6,57.6z M42,41.3h124.7v-9.7H40.4L42,41.3z M120,73.9
	h46.7v-7H120V73.9z M39.1,28.5h29.5l-5.6-9.7h100.2v9.7h3.4v-13H30L39.1,28.5z M217.5,15.5h-47.2V35h47.2V15.5z M51.5,90.8
	c0.8,1.2,2.2,2.5,6.9,3.8c2.3,0.6,4.8,1.1,8.3,1.9h50v-6.9H50.8C51,90,51.2,90.4,51.5,90.8L51.5,90.8z M48.6,80.2h68.1V60.7H45.2
	L48.6,80.2z M120,107.5c17.4,3.4,34.5,6.6,46.7,8.5V83.4H120V107.5z M220.7,57.6h71.6l3.3-19.5h-74.9V57.6z M220.7,21.6v6.9h77
	l4.8-6.9L220.7,21.6z M337,0l-22.7,32c-2.5,13.6-9,48.6-9.7,52.1c-2.1,9.8-3.2,15.8-22.4,20.3c-25.7,6.1-84.2,17.9-113.7,22.5
	c-29.5-4.6-88-16.5-113.7-22.5c-19.2-4.6-20.3-10.5-22.4-20.3c-0.7-3.4-7.2-38.5-9.7-52L0,0.1L337,0z M319.1,6H17.9l17.9,25.6
	c4.5,26.6,7.2,43.6,8.4,49.6c2,10.4,2.3,14.8,13,17.7c21.3,5,83,17.7,111.3,22c28.3-4.3,90-16.9,111.3-22c10.7-2.9,11-7.3,13-17.7
	c1.1-6,3.9-23,8.4-49.6L319.1,6z M170.3,73.9h3.3v-9.8h89.1c-0.1,1-1,7.5-1.4,9.9h28.1l2.2-13.2H170.3V73.9z M170.3,86.6h116.9
	l1.9-9.7H170.3V86.6z M217.5,44.4h-47.2v7h47.2V44.4z M170.3,89.5h115.9c-0.2,0.4-0.4,0.8-0.6,1.2c-0.8,1.2-2.2,2.6-6.9,3.8
	c-21,5.2-78.7,16.7-108.4,21.5L170.3,89.5z M173.7,112.1c5.3-1,18.4-3.2,23.1-4.1c47.4-9.1,55.6-10.4,59.5-15.1h-82.6L173.7,112.1z"
	/>
</svg>
