<?xml version="1.0" encoding="utf-8"?>
<!-- Generator: Adobe Illustrator 24.0.3, SVG Export Plug-In . SVG Version: 6.00 Build 0)  -->
<svg version="1.1" id="Layer_1" xmlns="http://www.w3.org/2000/svg" xmlns:xlink="http://www.w3.org/1999/xlink" x="0px" y="0px"
	 viewBox="0 0 450 250" style="enable-background:new 0 0 450 250;" xml:space="preserve">
<style type="text/css">
	.st0{fill-rule:evenodd;clip-rule:evenodd;fill:#FFFFFF;}
</style>
<g id="Group-3" transform="translate(104.054054, 73.783784)">
	<path id="Fill-1" class="st0" d="M121,27.1h78.9l-15.6-27c-2.2-3.8-6.3-6.3-10.8-6.4L121-7.8L68.4-6.3C64-6.1,59.8-3.7,57.6,0.1
		l-15.6,27H121z M200.3,28.6H41.7c-0.5,0-0.9-0.2-1.1-0.6c-0.2-0.4-0.2-0.9,0-1.2L56.3-0.6c2.5-4.3,7.1-7,12-7.2L121-9.3v0.2v-0.2
		l52.7,1.6c4.9,0.2,9.5,2.9,12,7.2l15.7,27.4c0.2,0.4,0.2,0.9,0,1.2C201.1,28.4,200.7,28.6,200.3,28.6L200.3,28.6z M109.4,67.9
		l1.2,1.2l0.7,3c0.1,0.2,0.4,0.5,0.9,0.5l8.7,1.4l8.7-1.4c0.5-0.1,0.9-0.3,0.9-0.5l0.7-3l1.2-1.2H109.4z M121,75.5l-9-1.5
		c-1.1-0.2-1.9-0.8-2.1-1.6l-0.6-2.6l-3.2-3.4H136l-3.2,3.4l-0.7,2.7c-0.2,0.9-1,1.5-2.1,1.6L121,75.5z M16.4,49.2l0.8,1.6
		c0,0,2.1,3.2,16.1,6.4C46,60,71.6,63.5,121,63.5s74.9-3.4,87.7-6.3c14-3.2,16.1-6.4,16.1-6.4l0.8-1.5l-31.6,8.2l-7.5-1.1
		c-0.2,0-34.3,1.7-65.5,1.7l0,0c-31.2,0-65.2-1.6-65.5-1.7l-7.4,1.1L16.4,49.2z M48.7,61.3l13,18c1.3,1.8,3.4,3,5.6,3.2l53.7,4.8
		l53.7-4.8c2.3-0.2,4.3-1.3,5.6-3.2l13-18c-15.6,2.1-38.6,3.7-72.2,3.7l0,0C87.2,64.9,64.3,63.3,48.7,61.3L48.7,61.3z M55.1,92.1
		c2.7,0.3,26.1,2.7,65.8,2.7s63-2.4,65.8-2.7l29.8-31.9l9-3.1l0.4-5.5c-0.7,0.9-5.3,5.8-30.7,9.4l-13.9,19.1c-1.6,2.2-4,3.5-6.6,3.7
		l-53.8,4.8l-0.1-0.5l-0.1,0.5L67,83.9c-2.6-0.2-5.1-1.6-6.6-3.7L46.5,61c-25.4-3.6-30-8.5-30.7-9.4l0.4,5.5l9,3.1l0.2,0.2
		L55.1,92.1z M20.5,95.9h2.9c0.9,0,1.6-0.4,2.1-1.1l4.3-5.1c0.7-0.9,0.9-1.9,0.5-3l-9.3-24.5l-2.7-1.6L20.5,95.9z M220.8,62.2
		l-9.3,24.5c-0.4,1-0.2,2.2,0.5,3l4.2,5.1c0.5,0.7,1.3,1.1,2.2,1.1h2.9l2.3-35.1L220.8,62.2z M188.2,92.7l13.1,12.2
		c0.6,0.5,1.5,0.8,2.3,0.6l20.3-4.1c1.9-0.4,3.3-2.1,3.2-4.1l-1.5-38.7l-0.3,0.1l-2.4,38.7h-4.3c-1.3,0-2.5-0.6-3.3-1.6l-4.2-5
		c-1-1.2-1.3-3-0.8-4.4l9.4-25l2.6-1.5l-4.8,1.7L188.2,92.7z M16.4,58.6l-1.5,38.8c-0.1,1.9,1.2,3.7,3.2,4.1l20.3,4.1
		c0.9,0.2,1.6-0.1,2.3-0.6l13.1-12.2L24.5,61.4l-4.8-1.7l2.6,1.5l9.4,25c0.5,1.5,0.3,3.2-0.8,4.4l-4.2,5.1c-0.8,1-2,1.6-3.3,1.6
		h-4.3l-2.4-38.7L16.4,58.6z M38.9,107c-0.2,0-0.5,0-0.8-0.1l-20.3-4.1c-2.6-0.5-4.4-2.9-4.4-5.5L15,57.6l-0.8-10.4l34,8.7l7.2-1.1
		c0.5,0,34.5,1.6,65.6,1.6s65.2-1.6,65.5-1.7l7.3,1.1l34-8.7l-0.8,10.4l1.6,39.7c0.1,2.6-1.7,5-4.4,5.5l-20.3,4.1
		c-1.2,0.2-2.6-0.2-3.6-1l-13.6-12.3c-3,0.3-26.4,2.7-65.9,2.7l0,0c-39.4,0-62.8-2.4-65.9-2.7l-13.3,12.4C41,106.6,40,107,38.9,107
		L38.9,107z M308.4,11.8h0.5V4.9c0-2.7,2-5,4.7-5.4V-1c-3,0.4-5.2,2.9-5.2,5.9V11.8z M310.4,11.8h3.2V1.1c-1.9,0.3-3.2,1.9-3.2,3.9
		V11.8L310.4,11.8z M20.7,22.9c0.3,0.4,0.9,0.6,1.3,0.6l14.3,0.1l3.1,1.5l0.2-0.5l-2.6-1.2l1.1-0.7c0.2-0.1,0.2-0.3,0.2-0.5
		l-0.7-4.4c0-0.1-0.1-0.2-0.2-0.2h-9.8c-0.9,0-1.8,0.3-2.5,1L20.7,22.9z M202.2,24.7l0.2,0.5l3.4-1.6h14c0.5,0,1-0.2,1.3-0.6
		l-4.7-4.3c-0.7-0.6-1.6-1-2.5-1h-9.8c-0.1,0-0.2,0.1-0.2,0.2l-0.7,4.4c0,0.2,0.1,0.4,0.2,0.5l1.1,0.7L202.2,24.7z M233.1,55.4h3.3
		c0.9,0,1.9,0.4,2.6,1.1l2.6,2.6h5.7l-6.5-6.5c-0.4-0.4-0.9-0.6-1.6-0.6h-6.9C232.6,53.1,232.8,54.2,233.1,55.4L233.1,55.4z
		 M303.7,59.8h10V13.3h-10V59.8z M121,108.1h64.7c7.6,0,9,0.2,10.5,0.4c1.2,0.2,2.4,0.3,7.8,0.3c10.1,0,23.9-3.7,26.6-4.5
		c0.4-2.9,2.6-18.2,2.6-25.9c0-23.5-3.6-36.2-10.6-38c-11.2-2.7-19.8-11.7-20.2-12.1l-0.2-0.2L187.6-1.1
		c-4.8-6.9-12.9-11.1-21.4-11.1H75.7C67.1-12.2,59.1-8,54.3-1L39.5,28.4c-0.4,0.4-9,9.4-20.2,12.1c-7,1.7-10.6,14.5-10.6,38
		c0,7.7,2.2,23,2.6,25.9c2.6,0.8,16.4,4.5,26.6,4.5c5.4,0,6.5-0.2,7.8-0.3c1.5-0.2,3-0.4,10.5-0.4C56.2,108.1,121,108.1,121,108.1z
		 M121,110.5h59.2c4,0,5.8,0.6,7.9,1.3c2.3,0.8,5,1.6,11.9,1.6c11.2,0,27.7-4.2,31.3-5.1l-0.5-2.5c-3.4,0.9-16.7,4.4-26.7,4.4
		c-5.5,0-6.7-0.2-8-0.3c-1.4-0.2-2.9-0.4-10.4-0.4H56.2c-7.5,0-9,0.2-10.4,0.4c-1.3,0.2-2.6,0.3-8,0.3c-10,0-23.3-3.5-26.7-4.4
		l-0.5,2.5c3.5,0.9,20,5.1,31.2,5.1c6.9,0,9.6-0.9,11.9-1.6c2-0.7,3.9-1.3,7.9-1.3H121z M56.3,112.6l14.6,1.9l50.1,1.4l50.2-1.4
		l14.5-1.9c-1.4-0.4-3-0.6-5.5-0.6H61.9C59.3,111.9,57.7,112.2,56.3,112.6L56.3,112.6z M14.9,123.2l106.1,6.1l106.1-6.1l3.4-6.2
		l0.7-7.2c-4.2,1.1-20.2,5.1-31.3,5.1c-5.8,0-8.8-0.6-11-1.3l-17.7,2.3l-50.3,1.5v-0.2v0.2l-50.3-1.4l-17.8-2.3
		c-2.2,0.7-5.1,1.3-11,1.3c-11.1,0-27-4-31.3-5.1l0.7,7.2L14.9,123.2z M9.9,144.1h31.6c0.5-1.4,1.8-6.5,1.9-17.8l-29.3-1.7l-4-7.3
		l-0.9-8.4l0.7-3.9c-0.2-1.1-1.4-9.5-2.2-17.2C6.5,102,5,129.8,9.9,144.1L9.9,144.1z M200.4,144.1H232c4.9-14.3,3.4-42.1,2.2-56.5
		c-0.8,7.8-1.9,16.1-2.2,17.2l0.7,3.9l-0.9,8.7l-3.9,7.1l-29.3,1.7C198.6,137.7,199.9,142.7,200.4,144.1L200.4,144.1z M245.5,61.3
		v62.7c0,11.1,9.1,20.2,20.3,20.2h22.8c11.1,0,20.3-9,20.3-20.2V61.3h-0.5v62.7c0,10.8-8.9,19.6-19.7,19.6h-22.8
		c-10.9,0-19.7-8.8-19.7-19.6V61.3H245.5z M288.6,145.6h-22.8c-12,0-21.7-9.7-21.7-21.7V61.3h-1.4l-0.8-0.8h-1l-3-3
		c-0.4-0.4-0.9-0.6-1.6-0.6h-3c1.4,8.2,1.4,17.1,1.4,21.5c0.3,2.5,5.6,47-1.5,66.7l-0.2,0.5h-33.6l-0.2-0.5c-0.1-0.2-2-4.7-2.1-18.8
		l-76.1,4.4v-0.5v0.5l-76.1-4.4c-0.1,14.1-2,18.6-2.1,18.8l-0.2,0.5H8.9l-0.2-0.5C1.7,125.3,7,80.8,7.3,78.3c0-9,0-36.5,11.7-39.3
		c10.3-2.5,18.5-10.8,19.4-11.6l0.5-1L36,25H22.1c-1.3,0-2.5-0.8-3-1.9l-0.2-0.5l5.5-5.1c0.9-0.9,2.2-1.4,3.5-1.4h9.8
		c0.8,0,1.5,0.5,1.6,1.4l0.7,4.4c0.1,0.4,0,0.8-0.2,1.1l0.6,0.3l12.6-25c5.2-7.5,13.6-11.9,22.7-11.9h90.6c9,0,17.5,4.4,22.7,11.8
		l12.5,25.2l0.6-0.3c-0.2-0.3-0.2-0.7-0.2-1.1l0.7-4.4c0.2-0.8,0.8-1.4,1.6-1.4h9.8c1.3,0,2.6,0.5,3.5,1.4l5.5,5.1l-0.2,0.5
		c-0.5,1.2-1.6,1.9-3,1.9h-13.9l-2.9,1.4l0.5,1c0.9,0.9,9.1,9.1,19.4,11.6c4.4,1.1,7.2,5.6,8.9,11.4h7.2c1,0,1.9,0.4,2.6,1.1l9.1,9
		l-1.7,0.1v0.7h-1.5V124c0,10.1,8.2,18.2,18.3,18.2h22.8c10.1,0,18.3-8.2,18.3-18.2V61.3h-4.8V11.8h4.7V4.9c0-3.8,3-7,6.7-7.4v-8.1
		h1.5v155.5h-1.6V61.3h-3.2v62.7C310.5,135.9,300.6,145.6,288.6,145.6L288.6,145.6z"/>
</g>
</svg>
