<?xml version="1.0" encoding="utf-8"?>
<!-- Generator: Adobe Illustrator 24.0.3, SVG Export Plug-In . SVG Version: 6.00 Build 0)  -->
<svg version="1.1" id="Layer_1" xmlns="http://www.w3.org/2000/svg" xmlns:xlink="http://www.w3.org/1999/xlink" x="0px" y="0px"
	 viewBox="0 0 450 250" style="enable-background:new 0 0 450 250;" xml:space="preserve">
<style type="text/css">
	.st0{fill-rule:evenodd;clip-rule:evenodd;fill:#FFFFFF;}
</style>
<g id="charging-dc-fast-charge-copy" transform="translate(394.459459, 0.000000)">
	<g id="Group-3" transform="translate(157.588771, 15.340541)">
		<path id="Fill-1" class="st0" d="M-337.5,73.6h5l-1.7,10l5.5-11.1h-5l1.7-10L-337.5,73.6z M-336.7,91.3l2.8-16.5h-5.5l10-19.9
			l-2.8,16.5h5.5L-336.7,91.3z M-341.4,106.3h16.6v-9.1h-16.6V106.3z M-341.4,110.7h16.6v-3.2h-16.6V110.7z M-342.6,111.8h19.1V96.1
			h-19.1V111.8z M-333.1,113.7c-1.2,0-2.2,0.9-2.2,2.2c0,1.2,1,2.2,2.2,2.2c1.2,0,2.2-0.9,2.2-2.2
			C-330.9,114.7-331.8,113.7-333.1,113.7L-333.1,113.7z M-333.1,119.1c-1.9,0-3.4-1.5-3.4-3.4c0-1.8,1.5-3.4,3.4-3.4
			c1.8,0,3.4,1.5,3.4,3.4C-329.7,117.7-331.3,119.1-333.1,119.1L-333.1,119.1z M-356.5,53.4h46.8v-14h-46.8V53.4z M-343.5,119.8
			h20.9V95.7h-20.9V119.8z M-308.5,38.3V121h-49.2V38.3H-308.5z M-309.7,54.6h-46.8v65.3h11.7V94.6h23.4v25.3h11.7L-309.7,54.6
			L-309.7,54.6z M-367.7,23.6h3.1v-6.8h-6.6L-367.7,23.6z M-363.5,23.6h60.7v-6.9c-20.2-2.5-40.6-2.5-60.7,0V23.6z M-363.5,33.8
			h60.7v-9h-60.7V33.8z M-299.7,92.7l7.2,1.3c0.6,0.1,1.2-0.1,1.6-0.4c0.4-0.3,0.8-0.9,0.8-1.5v-2.3c0-1-0.8-1.8-1.9-1.8h-7.7
			L-299.7,92.7L-299.7,92.7z M-301.5,95.6h0.6V84.9h-0.6V95.6z M-377.4,141.1c0,12.7,4.8,24.2,12.8,33V24.8h-3.8l-1.3-2.5h-6.7
			c-0.5,0-0.8,0.4-0.8,0.8v118H-377.4z M-301.5,96.8v87.4c3.6-2.1,6.9-4.6,9.9-7.6c9.7-9.3,15-21.8,15-35v-37.3
			c0-6.1-5.1-11.2-11.4-11.2h-1.1c-0.2,0.5-0.5,1-1,1.3c-0.8,0.6-1.7,0.8-2.6,0.7l-7-1.3v2.9L-301.5,96.8L-301.5,96.8z
			 M-357.7,138.1h49.1v49.4c2-0.8,4-1.7,5.8-2.7V34.9h-60.7v140.5c1.8,1.8,3.7,3.6,5.8,5.1V138.1z M-356.5,181.5
			c8.2,5.9,18.2,9.4,29.2,9.4c6.1,0,12-1,17.6-2.9v-48.7h-46.8V181.5z M-327.3,193.9h0.3c14.1,0,27.4-5.4,37.5-15.1
			c10.2-9.9,15.8-23,15.8-37.1v-37.3c0-7.7-6.5-14-14.4-14h-0.9V92h0.9c7,0,12.6,5.5,12.6,12.4v37.3c0,13.5-5.5,26.3-15.3,35.8
			c-9.8,9.4-22.6,14.6-36.3,14.6c-0.1,0-0.2,0-0.3,0c-28.3-0.2-51.3-23-51.3-51v-118c0-1.1,0.9-2,2.1-2h6.1l-0.8-1.7h-8.2
			c-0.5,0-0.8,0.4-0.8,0.8v120.8C-380.4,170-356.6,193.7-327.3,193.9L-327.3,193.9z M-363.5,202.5h5.8v-16.8c-2-1.3-4-2.9-5.8-4.5
			V202.5z M-356.5,202.5h46.8v-10.2c-5.6,1.8-11.5,2.8-17.6,2.8c-10.7-0.1-20.7-3.2-29.1-8.6L-356.5,202.5L-356.5,202.5z
			 M-308.5,202.5h5.8v-13c-1.8,0.9-3.8,1.8-5.8,2.4V202.5z M-301.5,203.7h-63.2V180c-10.4-9.8-16.9-23.7-16.9-38.9V20.3
			c0-1.1,0.9-2,2.1-2h7.6l-1.3-2.5h9.1c20.6-2.7,41.5-2.7,62.1,0l0.5,0.1v68h1.8v3h7.7c1.4,0,2.6,0.9,2.9,2.2h1
			c8.6,0,15.6,6.8,15.6,15.2v37.3c0,14.3-5.7,27.7-16.1,37.9c-3.9,3.8-8.2,6.9-12.9,9.3L-301.5,203.7L-301.5,203.7z"/>
	</g>
</g>
</svg>
